<svg width="20" height="20" viewBox="0 0 20 20" fill="none" xmlns="http://www.w3.org/2000/svg">
<rect x="0.0771484" width="19.9233" height="19.9233" rx="4" fill="#A4ADB9"/>
<path fill-rule="evenodd" clip-rule="evenodd" d="M7.23545 5.32084L7.62254 4.5524C7.91339 3.9698 8.50826 3.60134 9.15942 3.60045H10.6103C11.2625 3.60025 11.8587 3.96888 12.15 4.5524L12.5343 5.32084H13.3256C13.9591 5.32084 14.4726 5.83434 14.4726 6.46777V6.75451C14.4726 6.91286 14.3442 7.04124 14.1858 7.04124H5.58387C5.42551 7.04124 5.29714 6.91286 5.29714 6.75451V6.46777C5.29714 5.83434 5.81064 5.32084 6.44407 5.32084H7.23545ZM8.51714 5.32084H11.2497L11.1207 5.06565C11.0243 4.87169 10.8269 4.74858 10.6103 4.74738H9.15942C8.94181 4.74749 8.74301 4.87077 8.64617 5.06565L8.51714 5.32084ZM14.2949 8.08318C14.1804 7.96757 14.0246 7.9022 13.8618 7.90144H5.90788C5.87068 7.89797 5.83325 7.89797 5.79605 7.90144C5.6323 7.9299 5.48698 8.02328 5.39305 8.1604C5.29912 8.29752 5.26453 8.46676 5.29714 8.62974L6.41826 14.7056C6.57331 15.5766 7.32855 16.2124 8.21321 16.2167H11.5565C12.4412 16.2124 13.1964 15.5766 13.3515 14.7056L14.4726 8.62974C14.4759 8.59254 14.4759 8.55511 14.4726 8.51791C14.4733 8.35517 14.4094 8.1988 14.2949 8.08318ZM8.73793 9.90856C8.42121 9.90856 8.16446 10.1653 8.16446 10.482V13.6361C8.16446 13.9528 8.42121 14.2096 8.73793 14.2096C9.05464 14.2096 9.31139 13.9528 9.31139 13.6361V10.482C9.31139 10.1653 9.05464 9.90856 8.73793 9.90856ZM10.4583 10.482C10.4583 10.1653 10.7151 9.90856 11.0318 9.90856C11.3485 9.90856 11.6053 10.1653 11.6053 10.482V13.6361C11.6053 13.9528 11.3485 14.2096 11.0318 14.2096C10.7151 14.2096 10.4583 13.9528 10.4583 13.6361V10.482Z" fill="white"/>
</svg>
