<svg width="64" height="80" fill="#06847B" xmlns="http://www.w3.org/2000/svg" xmlns:xlink="http://www.w3.org/1999/xlink" version="1.1" x="0px" y="0px" viewBox="0 0 64 80" style="enable-background:new 0 0 64 64;" xml:space="preserve"><g><polygon points="4.894,55.48 8.52,59.105 13.149,57.562 6.437,50.852  "/><path d="M7.414,49l3.086,3.086l15.793-15.793l1.414,1.414L11.914,53.5L15,56.586L36.586,35L29,27.414L7.414,49z M31.707,33.707   l-2,2l-1.414-1.414l2-2L31.707,33.707z"/><polygon points="3.081,60.919 6.399,59.812 4.187,57.602  "/><polygon points="55,3 55,7 53,7 53,3 51,3 51,5 49,5 49,3 47,3 47,7 45,7 45,3 43,3 43,5 41,5 41,3 39,3 39,7 37,7 37,3 35,3 35,5    33,5 33,3 31,3 31,7 29,7 29,3 27,3 27,5 25,5 25,3 23,3 23,7 21,7 21,3 19,3 19,5 17,5 17,3 10.414,3 30.5,23.086 34.743,18.844    24.899,9 55,9 55,39.101 45.157,29.258 40.914,33.5 61,53.586 61,3  "/><path d="M45.429,26.157C46.442,25.144,47,23.797,47,22.364C47,19.406,44.594,17,41.636,17c-1.433,0-2.78,0.558-3.793,1.571   L33.414,23L41,30.586L45.429,26.157z"/><rect x="33.879" y="23.636" transform="matrix(0.7071 -0.7071 0.7071 0.7071 -10.2548 33.2426)" width="2.243" height="10.728"/></g></svg>
