<svg width="17" height="17" viewBox="0 0 17 17" fill="none" xmlns="http://www.w3.org/2000/svg">
<path fill-rule="evenodd" clip-rule="evenodd" d="M8.10465 0.000488281C3.6286 0.000488281 0 3.62908 0 8.10514C0 12.5812 3.6286 16.2098 8.10465 16.2098C12.5807 16.2098 16.2093 12.5814 16.2093 8.10514C16.2093 3.62889 12.5807 0.000488281 8.10465 0.000488281ZM8.06422 12.6375C8.06422 12.6375 7.68817 12.8875 7.43111 12.8863L7.39468 12.9029L7.39526 12.8863C7.34129 12.8838 7.28694 12.8762 7.23221 12.8625L7.15097 12.8425C6.70207 12.7311 6.46446 12.286 6.57621 11.8373L7.20113 9.31798L7.48317 8.18008C7.62878 7.59383 7.35658 7.7274 7.04708 7.87927C6.79884 8.00108 6.5266 8.13467 6.4267 7.91807C6.28528 7.61101 7.18932 6.98205 7.90685 6.48284L7.90685 6.48284L8.00816 6.41232C8.00816 6.41232 8.38383 6.16269 8.64108 6.16365C8.66416 6.15297 8.6777 6.14706 8.6777 6.14706L8.67674 6.16365C8.73109 6.16613 8.78544 6.17375 8.84017 6.18729L8.92141 6.20751C9.37031 6.31887 9.64377 6.77293 9.5324 7.22164L8.90768 9.74113L8.62506 10.879C8.47994 11.4642 8.74537 11.3307 9.04918 11.1779C9.29391 11.0549 9.56355 10.9193 9.6636 11.1367C9.80049 11.4335 8.94247 12.0284 8.2354 12.5186L8.23538 12.5186C8.17709 12.559 8.11982 12.5987 8.06422 12.6375ZM8.22822 5.61825C8.85638 5.77424 9.49217 5.39113 9.64816 4.76278C9.80396 4.13424 9.42104 3.49846 8.7925 3.34266C8.16434 3.18667 7.52855 3.56959 7.37256 4.19813C7.21657 4.82666 7.59968 5.46226 8.22822 5.61825Z" fill="#8a85ff"/>
</svg>
