<svg width="21" height="20" viewBox="0 0 21 20" fill="none" xmlns="http://www.w3.org/2000/svg">
<rect x="0.577148" y="0.0766907" width="19.9233" height="19.9233" rx="4" fill="#A4ADB9"/>
<path fill-rule="evenodd" clip-rule="evenodd" d="M10.761 15.0818C7.57091 15.0818 4.38086 11.0942 4.38086 10.2967C4.38086 9.49922 7.57091 5.51166 10.761 5.51166C13.951 5.51166 17.141 9.49922 17.141 10.2967C17.141 11.0942 13.951 15.0814 10.761 15.0818ZM10.761 7.10668C8.99885 7.10668 7.57091 8.53502 7.57091 10.2967C7.57091 12.0584 8.99885 13.4868 10.761 13.4868C12.5227 13.4868 13.951 12.0584 13.951 10.2967C13.951 8.53463 12.5227 7.10668 10.761 7.10668ZM10.761 12.389C9.60508 12.389 8.66824 11.4522 8.66824 10.2963C8.66824 9.1408 9.60508 8.20362 10.761 8.20362C10.9545 8.20362 11.1383 8.2385 11.3166 8.28767C11.1896 8.46102 11.1097 8.67029 11.1097 8.90154C11.1097 9.47947 11.5782 9.94789 12.1561 9.94789C12.3873 9.94789 12.5959 9.86628 12.7689 9.73932C12.8184 9.9179 12.8537 10.1021 12.8537 10.2963C12.8537 11.4522 11.9165 12.389 10.761 12.389Z" fill="white"/>
</svg>
