<svg width="64" height="80" fill="#06847B" xmlns="http://www.w3.org/2000/svg" viewBox="0 0 64 80" x="0px" y="0px"><title>warehouse-factory-stock</title><g><path d="M61.51,19.14l-29-17a1,1,0,0,0-1,0l-29,16A1,1,0,0,0,2,19V61a1,1,0,0,0,1,1H8a1,1,0,0,0,1-1V34H55V61a1,1,0,0,0,1,1h5a1,1,0,0,0,1-1V20A1,1,0,0,0,61.51,19.14ZM55,28H9V26H55ZM9,32V30H55v2ZM60,60H57V25a1,1,0,0,0-1-1H8a1,1,0,0,0-1,1V60H4V19.59L32,4.15,60,20.57Z"/><path d="M40,62H52a1,1,0,0,0,1-1V37a1,1,0,0,0-1-1H40a1,1,0,0,0-1,1V48H28a1,1,0,0,0-1,1V61a1,1,0,0,0,1,1Zm11-2H41V50h2v3a1,1,0,0,0,1,1h4a1,1,0,0,0,1-1V50h2ZM45,50h2v2H45Zm0-12h2v2H45Zm-4,0h2v3a1,1,0,0,0,1,1h4a1,1,0,0,0,1-1V38h2V48H41ZM33,50h2v2H33Zm-4,0h2v3a1,1,0,0,0,1,1h4a1,1,0,0,0,1-1V50h2V60H29Z"/><path d="M26,17v4a1,1,0,0,0,1,1H37a1,1,0,0,0,1-1V17a1,1,0,0,0-1-1H27A1,1,0,0,0,26,17Zm2,1h8v2H28Z"/></g></svg>
